{
    "asset" : {
        "generator" : "Khronos glTF Blender I/O v1.2.75",
        "version" : "2.0"
    },
    "scene" : 0,
    "scenes" : [
        {
            "name" : "Scene",
            "nodes" : [
                0
            ]
        }
    ],
    "nodes" : [
        {
            "mesh" : 0,
            "name" : "Cap_1.001",
            "scale" : [
                0.05685535818338394,
                0.05685535818338394,
                0.05685535818338394
            ]
        }
    ],
    "animations" : [
        {
            "channels" : [
                {
                    "sampler" : 0,
                    "target" : {
                        "node" : 0,
                        "path" : "translation"
                    }
                },
                {
                    "sampler" : 1,
                    "target" : {
                        "node" : 0,
                        "path" : "rotation"
                    }
                },
                {
                    "sampler" : 2,
                    "target" : {
                        "node" : 0,
                        "path" : "scale"
                    }
                }
            ],
            "name" : "Cap_1.001|Take 001|BaseLayer.004",
            "samplers" : [
                {
                    "input" : 3,
                    "interpolation" : "STEP",
                    "output" : 4
                },
                {
                    "input" : 3,
                    "interpolation" : "STEP",
                    "output" : 5
                },
                {
                    "input" : 3,
                    "interpolation" : "STEP",
                    "output" : 6
                }
            ]
        }
    ],
    "materials" : [
        {
            "doubleSided" : true,
            "emissiveFactor" : [
                0,
                0,
                0
            ],
            "name" : "01 - Default.001",
            "pbrMetallicRoughness" : {
                "baseColorFactor" : [
                    0.5882353186607361,
                    0.5882353186607361,
                    0.5882353186607361,
                    1
                ],
                "metallicFactor" : 1,
                "roughnessFactor" : 0.858578622341156
            }
        }
    ],
    "meshes" : [
        {
            "name" : "Mesh.004",
            "primitives" : [
                {
                    "attributes" : {
                        "POSITION" : 0,
                        "NORMAL" : 1
                    },
                    "indices" : 2,
                    "material" : 0
                }
            ]
        }
    ],
    "accessors" : [
        {
            "bufferView" : 0,
            "componentType" : 5126,
            "count" : 57330,
            "max" : [
                8.469054222106934,
                27.247623443603516,
                8.091795921325684
            ],
            "min" : [
                -8.116138458251953,
                -0.0027359214145690203,
                -8.49339771270752
            ],
            "type" : "VEC3"
        },
        {
            "bufferView" : 1,
            "componentType" : 5126,
            "count" : 57330,
            "type" : "VEC3"
        },
        {
            "bufferView" : 2,
            "componentType" : 5123,
            "count" : 82656,
            "type" : "SCALAR"
        },
        {
            "bufferView" : 3,
            "componentType" : 5126,
            "count" : 1,
            "max" : [
                0.03333333333333333
            ],
            "min" : [
                0.03333333333333333
            ],
            "type" : "SCALAR"
        },
        {
            "bufferView" : 4,
            "componentType" : 5126,
            "count" : 1,
            "type" : "VEC3"
        },
        {
            "bufferView" : 5,
            "componentType" : 5126,
            "count" : 1,
            "type" : "VEC4"
        },
        {
            "bufferView" : 6,
            "componentType" : 5126,
            "count" : 1,
            "type" : "VEC3"
        }
    ],
    "bufferViews" : [
        {
            "buffer" : 0,
            "byteLength" : 687960,
            "byteOffset" : 0
        },
        {
            "buffer" : 0,
            "byteLength" : 687960,
            "byteOffset" : 687960
        },
        {
            "buffer" : 0,
            "byteLength" : 165312,
            "byteOffset" : 1375920
        },
        {
            "buffer" : 0,
            "byteLength" : 4,
            "byteOffset" : 1541232
        },
        {
            "buffer" : 0,
            "byteLength" : 12,
            "byteOffset" : 1541236
        },
        {
            "buffer" : 0,
            "byteLength" : 16,
            "byteOffset" : 1541248
        },
        {
            "buffer" : 0,
            "byteLength" : 12,
            "byteOffset" : 1541264
        }
    ],
    "buffers" : [
        {
            "byteLength" : 1541276,
            "uri" : "data:application/octet-stream;base64,"
        }
    ]
}
